<svg xmlns="http://www.w3.org/2000/svg" viewBox="0 0 1440 220" preserveAspectRatio="xMidYMid slice">
  <defs>
    <linearGradient id="bg" x1="0" y1="0" x2="1" y2="1">
      <stop offset="0%" stop-color="#2e2627"/>
      <stop offset="50%" stop-color="#262324"/>
      <stop offset="100%" stop-color="#1c1a1b"/>
    </linearGradient>
    <radialGradient id="glow1" cx="15%" cy="50%" r="40%">
      <stop offset="0%" stop-color="#3a5a6e" stop-opacity="0.30"/>
      <stop offset="100%" stop-color="transparent" stop-opacity="0"/>
    </radialGradient>
    <radialGradient id="glow2" cx="65%" cy="40%" r="35%">
      <stop offset="0%" stop-color="#2e4a5c" stop-opacity="0.20"/>
      <stop offset="100%" stop-color="transparent" stop-opacity="0"/>
    </radialGradient>
    <radialGradient id="glow3" cx="85%" cy="70%" r="25%">
      <stop offset="0%" stop-color="#4a6a80" stop-opacity="0.12"/>
      <stop offset="100%" stop-color="transparent" stop-opacity="0"/>
    </radialGradient>
  </defs>
  <rect width="1440" height="220" fill="url(#bg)"/>
  <rect width="1440" height="220" fill="url(#glow1)"/>
  <rect width="1440" height="220" fill="url(#glow2)"/>
  <rect width="1440" height="220" fill="url(#glow3)"/>
  <!-- Hexagonal grid -->
  <g opacity="0.08" stroke="#5a7a8e" stroke-width="0.8" fill="none">
    <polygon points="100,40 130,25 160,40 160,70 130,85 100,70"/>
    <polygon points="200,60 230,45 260,60 260,90 230,105 200,90"/>
    <polygon points="320,35 350,20 380,35 380,65 350,80 320,65"/>
    <polygon points="440,55 470,40 500,55 500,85 470,100 440,85"/>
    <polygon points="560,30 590,15 620,30 620,60 590,75 560,60"/>
    <polygon points="680,50 710,35 740,50 740,80 710,95 680,80"/>
    <polygon points="800,40 830,25 860,40 860,70 830,85 800,70"/>
    <polygon points="920,60 950,45 980,60 980,90 950,105 920,90"/>
    <polygon points="1040,35 1070,20 1100,35 1100,65 1070,80 1040,65"/>
    <polygon points="1160,55 1190,40 1220,55 1220,85 1190,100 1160,85"/>
    <polygon points="1280,40 1310,25 1340,40 1340,70 1310,85 1280,70"/>
  </g>
  <!-- Sparkles -->
  <g opacity="0.07" fill="#6a8a9e">
    <path d="M150,140 L155,150 L165,150 L157,157 L160,167 L150,160 L140,167 L143,157 L135,150 L145,150 Z"/>
    <path d="M380,130 L383,137 L390,137 L385,142 L387,149 L380,144 L373,149 L375,142 L370,137 L377,137 Z"/>
    <path d="M620,145 L625,155 L635,155 L627,162 L630,172 L620,165 L610,172 L613,162 L605,155 L615,155 Z"/>
    <path d="M870,135 L873,142 L880,142 L875,147 L877,154 L870,149 L863,154 L865,147 L860,142 L867,142 Z"/>
    <path d="M1100,140 L1105,150 L1115,150 L1107,157 L1110,167 L1100,160 L1090,167 L1093,157 L1085,150 L1095,150 Z"/>
    <path d="M1340,130 L1343,137 L1350,137 L1345,142 L1347,149 L1340,144 L1333,149 L1335,142 L1330,137 L1337,137 Z"/>
  </g>
  <!-- Diagonal energy lines -->
  <g opacity="0.05" stroke="#5a7a8e" stroke-width="1" fill="none">
    <line x1="0" y1="200" x2="200" y2="120"/>
    <line x1="200" y1="190" x2="500" y2="130"/>
    <line x1="500" y1="200" x2="800" y2="110"/>
    <line x1="800" y1="185" x2="1100" y2="125"/>
    <line x1="1100" y1="195" x2="1440" y2="115"/>
  </g>
</svg>
